<svg xmlns="http://www.w3.org/2000/svg">
    <defs>

        <symbol id="home">
            <path fill-rule="evenodd" clip-rule="evenodd" d="M9.38606 0.210648C9.74717 -0.0702159 10.2528 -0.0702159 10.6139 0.210648L19.6139 7.21065C19.8575 7.4001 20 7.69141 20 8V19C20 19.7957 19.6839 20.5587 19.1213 21.1213C18.5587 21.6839 17.7957 22 17 22H3C2.20435 22 1.44129 21.6839 0.87868 21.1213C0.31607 20.5587 0 19.7957 0 19V8C0 7.69141 0.142473 7.4001 0.386059 7.21065L9.38606 0.210648ZM2 8.48908V19C2 19.2652 2.10536 19.5196 2.29289 19.7071C2.48043 19.8946 2.73478 20 3 20H17C17.2652 20 17.5196 19.8946 17.7071 19.7071C17.8946 19.5196 18 19.2652 18 19V8.48908L10 2.26686L2 8.48908Z" fill="#212429"/>
            <path fill-rule="evenodd" clip-rule="evenodd" d="M6 11C6 10.4477 6.44772 10 7 10H13C13.5523 10 14 10.4477 14 11V21C14 21.5523 13.5523 22 13 22C12.4477 22 12 21.5523 12 21V12H8V21C8 21.5523 7.55228 22 7 22C6.44772 22 6 21.5523 6 21V11Z" fill="#212429"/>
        </symbol>

        <symbol id="help">
            <path fill-rule="evenodd" clip-rule="evenodd" d="M11 2C6.02944 2 2 6.02944 2 11C2 15.9706 6.02944 20 11 20C15.9706 20 20 15.9706 20 11C20 6.02944 15.9706 2 11 2ZM0 11C0 4.92487 4.92487 0 11 0C17.0751 0 22 4.92487 22 11C22 17.0751 17.0751 22 11 22C4.92487 22 0 17.0751 0 11Z" fill="#212429"/>
            <path fill-rule="evenodd" clip-rule="evenodd" d="M11.2582 7.02431C10.7927 6.94446 10.314 7.03194 9.90675 7.27126C9.49955 7.51057 9.19019 7.88628 9.03345 8.33184C8.85018 8.85282 8.27926 9.1266 7.75827 8.94333C7.23728 8.76005 6.96351 8.18914 7.14678 7.66815C7.46025 6.77704 8.07898 6.02562 8.89339 5.54699C9.70779 5.06836 10.6653 4.8934 11.5964 5.0531C12.5274 5.2128 13.3719 5.69685 13.9802 6.41952C14.5884 7.14204 14.9214 8.05647 14.9201 9.0009C14.9197 10.5313 13.7851 11.5419 12.9748 12.082C12.5392 12.3725 12.1107 12.586 11.795 12.7263C11.6358 12.7971 11.5016 12.8508 11.405 12.8876C11.3566 12.906 11.3174 12.9203 11.2888 12.9305L11.2541 12.9427L11.243 12.9464L11.2391 12.9477L11.2376 12.9483C11.2373 12.9484 11.2363 12.9487 10.9201 12L11.2363 12.9487C10.7124 13.1233 10.1461 12.8402 9.97143 12.3162C9.7969 11.7926 10.0796 11.2267 10.6028 11.0517L10.6016 11.0521C10.6017 11.0521 10.6018 11.052 10.6028 11.0517L10.6188 11.0461C10.6342 11.0406 10.6594 11.0314 10.693 11.0186C10.7605 10.9929 10.8607 10.9529 10.9827 10.8987C11.2296 10.789 11.551 10.6275 11.8654 10.4179C12.555 9.95821 12.9201 9.46913 12.9201 8.99999L12.9201 8.9985C12.9208 8.52618 12.7543 8.06886 12.4502 7.70752C12.146 7.34618 11.7238 7.10416 11.2582 7.02431Z" fill="#212429"/>
            <path fill-rule="evenodd" clip-rule="evenodd" d="M11 14C11.5523 14 12 14.4477 12 15V15.5C12 16.0523 11.5523 16.5 11 16.5C10.4477 16.5 10 16.0523 10 15.5V15C10 14.4477 10.4477 14 11 14Z" fill="#212429"/>
        </symbol>

        <symbol id="success">
            <path fill-rule="evenodd" clip-rule="evenodd" d="M14.663 3.77342C12.8902 2.98352 10.9096 2.78783 9.01657 3.21555C7.12351 3.64326 5.41942 4.67145 4.15845 6.14678C2.89749 7.62211 2.14721 9.46552 2.01951 11.4021C1.89181 13.3387 2.39354 15.2646 3.44987 16.8928C4.50619 18.5209 6.06051 19.764 7.88102 20.4365C9.70153 21.1091 11.6907 21.1752 13.5518 20.6249C15.413 20.0746 17.0464 18.9375 18.2084 17.3831C19.3705 15.8286 19.9989 13.9402 20 11.9994V11.08C20 10.5277 20.4477 10.08 21 10.08C21.5523 10.08 22 10.5277 22 11.08V12C21.9986 14.3721 21.2306 16.6807 19.8103 18.5806C18.39 20.4804 16.3936 21.8703 14.1189 22.5428C11.8442 23.2154 9.41299 23.1346 7.18792 22.3126C4.96285 21.4906 3.06312 19.9713 1.77206 17.9813C0.480993 15.9914 -0.13223 13.6374 0.0238445 11.2705C0.179919 8.90358 1.09693 6.65052 2.63811 4.84734C4.17929 3.04416 6.26206 1.78748 8.57581 1.26472C10.8896 0.74196 13.3103 0.981129 15.477 1.94656C15.9815 2.17134 16.2082 2.76252 15.9834 3.26699C15.7587 3.77146 15.1675 3.9982 14.663 3.77342Z" fill="#212429"/>
            <path fill-rule="evenodd" clip-rule="evenodd" d="M21.7068 3.29254C22.0975 3.68287 22.0978 4.31603 21.7075 4.70675L11.7075 14.7168C11.52 14.9044 11.2656 15.0099 11.0002 15.01C10.7349 15.0101 10.4805 14.9047 10.2929 14.7171L7.29289 11.7171C6.90237 11.3266 6.90237 10.6934 7.29289 10.3029C7.68342 9.91237 8.31658 9.91237 8.70711 10.3029L10.9996 12.5954L20.2925 3.29325C20.6829 2.90253 21.316 2.90221 21.7068 3.29254Z" fill="#212429"/>
        </symbol>

        <symbol id="warning">
            <path fill-rule="evenodd" clip-rule="evenodd" d="M10.5282 1.28309C10.9775 1.03014 11.4844 0.897247 12 0.897247C12.5156 0.897247 13.0225 1.03014 13.4718 1.28309C13.9211 1.53604 14.2976 1.90052 14.565 2.34136L14.5679 2.34611L23.0379 16.4861L23.046 16.4999C23.308 16.9536 23.4466 17.4679 23.448 17.9917C23.4495 18.5155 23.3138 19.0306 23.0544 19.4857C22.795 19.9408 22.4209 20.3201 21.9694 20.5857C21.518 20.8514 21.0048 20.9942 20.481 20.9999L20.47 21.0001L3.51903 21C2.99522 20.9942 2.48206 20.8514 2.03059 20.5857C1.57912 20.3201 1.20507 19.9408 0.94567 19.4857C0.686267 19.0306 0.550547 18.5155 0.552014 17.9917C0.55348 17.4679 0.692083 16.9536 0.95403 16.4999L0.962153 16.4861L9.43215 2.34612L10.29 2.85998L9.43502 2.34136C9.70243 1.90052 10.0789 1.53604 10.5282 1.28309ZM11.1462 3.37663L2.68271 17.5058C2.59753 17.6556 2.55249 17.8249 2.55201 17.9973C2.55152 18.1719 2.59676 18.3436 2.68322 18.4953C2.76969 18.647 2.89438 18.7734 3.04487 18.862C3.19404 18.9498 3.36342 18.9973 3.53642 19H20.4636C20.6366 18.9973 20.806 18.9498 20.9552 18.862C21.1057 18.7734 21.2303 18.647 21.3168 18.4953C21.4033 18.3436 21.4485 18.1719 21.448 17.9973C21.4476 17.8249 21.4025 17.6557 21.3174 17.5059L12.855 3.37862C12.8546 3.37796 12.8542 3.37729 12.8538 3.37663C12.7648 3.23058 12.6397 3.1098 12.4906 3.02586C12.3409 2.94154 12.1719 2.89725 12 2.89725C11.8282 2.89725 11.6592 2.94154 11.5094 3.02586C11.3603 3.1098 11.2353 3.23058 11.1462 3.37663Z" fill="#212429"/>
            <path fill-rule="evenodd" clip-rule="evenodd" d="M12 7C12.5523 7 13 7.44772 13 8V12C13 12.5523 12.5523 13 12 13C11.4477 13 11 12.5523 11 12V8C11 7.44772 11.4477 7 12 7Z" fill="#212429"/>
            <path fill-rule="evenodd" clip-rule="evenodd" d="M12 14C12.5523 14 13 14.4477 13 15V15.5C13 16.0523 12.5523 16.5 12 16.5C11.4477 16.5 11 16.0523 11 15.5V15C11 14.4477 11.4477 14 12 14Z" fill="#212429"/>
        </symbol>

        <symbol id="arrow-down">
            <path fill-rule="evenodd" clip-rule="evenodd" d="M0.292893 0.292893C0.683417 -0.0976311 1.31658 -0.0976311 1.70711 0.292893L9 7.58579L16.2929 0.292893C16.6834 -0.0976311 17.3166 -0.0976311 17.7071 0.292893C18.0976 0.683417 18.0976 1.31658 17.7071 1.70711L9.70711 9.70711C9.31658 10.0976 8.68342 10.0976 8.29289 9.70711L0.292893 1.70711C-0.0976311 1.31658 -0.0976311 0.683417 0.292893 0.292893Z" fill="#212429"/>
        </symbol>

        <symbol id="close">
            <path fill-rule="evenodd" clip-rule="evenodd" d="M13.7071 0.292893C14.0976 0.683417 14.0976 1.31658 13.7071 1.70711L1.70711 13.7071C1.31658 14.0976 0.683417 14.0976 0.292893 13.7071C-0.0976311 13.3166 -0.0976311 12.6834 0.292893 12.2929L12.2929 0.292893C12.6834 -0.0976311 13.3166 -0.0976311 13.7071 0.292893Z" fill="#212429"/>
            <path fill-rule="evenodd" clip-rule="evenodd" d="M0.292893 0.292893C0.683417 -0.0976311 1.31658 -0.0976311 1.70711 0.292893L13.7071 12.2929C14.0976 12.6834 14.0976 13.3166 13.7071 13.7071C13.3166 14.0976 12.6834 14.0976 12.2929 13.7071L0.292893 1.70711C-0.0976311 1.31658 -0.0976311 0.683417 0.292893 0.292893Z" fill="#212429"/>
        </symbol>

        <symbol id="logo">
            <rect y="1" width="30" height="30" fill="#212429"/>
            <rect x="38" width="32" height="32" rx="16" fill="#212429"/>
            <path d="M78 0L110 32H78V0Z" fill="#212429"/>
        </symbol>

    </defs>
</svg>